<svg xmlns="http://www.w3.org/2000/svg" viewBox="0 0 1748.64 527.87"><defs><style>.cls-1{fill:#838383;}.cls-2{fill:#f7921d;}.cls-3{fill:#009f7f;}.cls-4{fill:#164a8c;}.cls-5{fill:#5fab41;}.cls-6{fill:#69ae4a;}.cls-7{fill:#020203;}</style></defs><g id="Capa_2" data-name="Capa 2"><g id="Capa_1-2" data-name="Capa 1"><path class="cls-1" d="M1748.64,119.74a.88.88,0,0,1-.45.06c-1-.94-.92-2.22-.92-3.42q0-54.54,0-109.08c0-1.19-.13-2.48.94-3.4a.31.31,0,0,1,.43.06Z"/><path class="cls-1" d="M1748.18,229.71l.46,0V340.31a1.38,1.38,0,0,1-.45.05c-1-.94-.92-2.22-.92-3.41q0-51.92,0-103.82C1747.27,231.94,1747.14,230.66,1748.18,229.71Z"/><path class="cls-2" d="M1532.61,527.87a.57.57,0,0,0,0-.46,3.45,3.45,0,0,1,2.88-.89c4.94,0,9.88-.06,14.82,0a3.35,3.35,0,0,1,2.86.91l-.06.44Z"/><path class="cls-3" d="M648.38,110.51c-3,0-4.9.93-6.41,3.71q-22.37,41.1-45,82.06c-12,21.63-23.74,43.37-35.91,64.9-7.31,12.93-14.22,26.11-21.38,39.13-7.45,13.56-15,27.09-22.33,40.68-7.23,13.29-14.95,26.32-21.86,39.79-1.88,3.66-4,7.12-7.33,9.75a21.86,21.86,0,0,1-13.83,4.77c-27.17.13-54.35.08-81.52.08q-17.18,0-34.35-.07c-2.54,0-3.28-1.29-2.08-3.48q8.83-16.12,17.68-32.26c14.39-26.13,28.88-52.2,43.2-78.36,12.07-22,24.37-44,36.46-66,10.17-18.53,20.24-37.12,30.39-55.68,6.55-12,13-24,20-35.75,1.87-3.13,3.36-6.48,5-9.76,1.28-2.63.8-3.42-2.13-3.44-7.52,0-15,0-22.55,0-10.57,0-21.15,0-31.72-.08a5,5,0,0,0-5.16,3c-7.95,14.52-16,29-24,43.46Q408,185,392.62,213.2,374.28,246.59,355.89,280c-11.37,20.63-23.11,41.06-34.1,61.9-3.82,7.25-7.68,14.47-11.9,21.49a64.8,64.8,0,0,1-19.21,20.46,61.92,61.92,0,0,1-26.93,10.54c-14.36,1.86-28.77,1.06-43.15,1.09-51.65.1-103.29,0-154.94,0-10.16,0-20.35-.32-30-3.88C19,385.36,8.29,373.29,2.49,356.47c-3-8.73-2.87-17.62-1.78-26.35.8-6.42,3.68-12.58,7-18.41,9.44-16.84,18.64-33.81,28-50.72,10.23-18.58,20.55-37.12,30.71-55.73,12.12-22.19,24.55-44.21,36.51-66.5,10.24-19.09,21.22-37.79,31.48-56.87,10.63-19.75,21.56-39.34,32.4-59q5.43-9.83,10.74-19.72A5.46,5.46,0,0,1,182.7,0q61.86.09,123.74.13c5.2,0,5.47.58,2.85,5.27C302.76,17.14,296,28.68,289.6,40.5c-13.36,24.89-27.11,49.58-40.69,74.35Q235.19,139.9,221.47,165c-12,21.86-24.14,43.67-36.12,65.55-6.3,11.5-12.61,23-19.25,34.31-2,3.34-3.87,6.86-3.19,11a11,11,0,0,0,10.16,8.91c14.67,1,29.34.25,44,0a5.17,5.17,0,0,0,4.9-3.1C232.65,262,243.17,242.38,254.22,223c16.42-28.78,31.87-58.08,48-87,4.32-7.74,8.5-15.56,12.65-23.39a5.64,5.64,0,0,1,5.15-3.38c4.19-.1,8.39-.14,12.58-.15q56.24,0,112.46,0a5.31,5.31,0,0,0,5.34-3.18q12.35-22.85,24.95-45.55c9-16.28,18.12-32.51,27.16-48.77,1.6-2.89,3.07-5.84,4.58-8.78A4.5,4.5,0,0,1,511.47.08c1.23,0,2.45,0,3.67,0H831.83A32.48,32.48,0,0,1,836,.23c2.12.27,2.7,1.29,1.53,3-5.94,8.45-9.65,18.11-14.69,27.05-13.35,23.71-26.4,47.58-39.56,71.4a51.75,51.75,0,0,0-2.35,4.64,6.52,6.52,0,0,1-6.74,4.29"/><path class="cls-3" d="M1748.18,229.71c0,7.68-.06,15.35-.06,23q0,43.17,0,86.34a9.38,9.38,0,0,0,.12,1.29,3.75,3.75,0,0,1-1.35,3.2q-18.18,16.4-36.26,32.9c-10.85,9.86-21.9,19.49-32.33,29.8-1.34,1.32-3,1.33-4.62,1.33q-15.6,0-31.2,0c-15.9,0-31.81-.09-47.71.07a12,12,0,0,1-9.54-3.84,83,83,0,0,0-6.54-6c-.89-.76-1.92-2-3.18-1.36s-.73,2.17-.74,3.35.08,2.44,0,3.66c-.15,3.27-.87,4-4.07,4.11-1,0-1.92,0-2.89,0H1496c-7.42,0-7.42,0-7.42-7.36l0-112.1c0-3.41.68-4.13,4.14-4.13q38.28,0,76.55,0c.53,0,1,0,1.57.06,3.53.27,3.74.51,3.75,4.13,0,5.68.05,11.35,0,17a8.48,8.48,0,0,0,2.44,6.13c5.58,5.93,12.12,10.79,18.08,16.29,1,1,2.43.87,3.72.88,12.67.07,25.34.1,38,.2a10.74,10.74,0,0,0,7-2.35c6.44-5,11.83-11.11,17.76-16.65,1.23-1.15,1.27-2.64,1.27-4.09,0-11.61-.46-23.25.22-34.82.39-6.56-2.3-10.74-6.75-14.62-4.27-3.73-8.53-7.49-12.64-11.4a8.18,8.18,0,0,0-6.13-2.24c-23.51,0-47-.1-70.52.12-5.13,0-8.91-1.28-12.31-5.26-3-3.48-6.91-6.11-10.34-9.21-9.26-8.36-18.37-16.89-27.73-25.13-8.58-7.56-16.85-15.45-25.36-23.08a8.1,8.1,0,0,1-2.84-6.61q.09-52.24-.07-104.5a8.82,8.82,0,0,1,3.41-7q18.17-16.39,36.3-32.83Q1543.06,15.56,1558,2a6.56,6.56,0,0,1,4.68-1.92q41.68,0,83.36,0c3.38,0,5,2.46,7.2,4.23,2.35,1.92,4.25,4.39,6.92,6,1.59.94,2.64,1,2.6-1.32,0-1,.07-1.91.13-2.87.43-7,.35-5.89,6.34-5.93,24.9-.15,49.81-.07,74.71,0,3.75,0,4.17.46,4.32,3.83,0,1.82-.09,3.65-.09,5.48q0,54.83,0,109.65a5.24,5.24,0,0,0,.1.77c0,2-1.06,2.65-3,2.66-18.61,0-37.21.1-55.82.15-7.33,0-14.67.06-22,0-4,0-4.43-.58-4.44-4.56,0-5.24,0-10.48,0-15.71a8.07,8.07,0,0,0-2.91-6.83c-5.64-4.82-11-9.94-16.42-15a5.17,5.17,0,0,0-3.81-1.33q-21.09,0-42.19,0a5.83,5.83,0,0,0-4.17,1.72c-5.48,5.1-11,10.13-16.7,15a5.31,5.31,0,0,0-1.9,4.32q0,21.08,0,42.15a5.09,5.09,0,0,0,1.38,3.57c5.67,6.21,12.42,11.22,18.68,16.77,1.28,1.14,3.14.81,4.78.81,23.84,0,47.69,0,71.53,0,3.43,0,6.11.58,8.83,3.22,10.07,9.78,20.47,19.23,30.86,28.68,9.48,8.63,19.16,17,28.63,25.68C1742.52,223.8,1745.72,226.4,1748.18,229.71Z"/><path class="cls-3" d="M1428.27,233.78c.15,26.27,0,52.55-.64,78.82-.11,4.63.43,9.23.63,13.85.09,2,1.24,2.5,2.88,2.63,4.28.33,8.56.11,12.84.05,4.46-.06,4.74.26,4.77,4.64.13,23.05.47,46.09,0,69.14-.07,3.89-.6,4.42-4.57,4.66-1,.06-1.92,0-2.88,0H1329.12c-6.92,0-7,0-7-6.9q0-33.39,0-66.79c0-4.22.4-4.62,4.54-4.7s8.39-.18,12.58-.13c2.3,0,3.4-.88,3.39-3.19q0-7.59,0-15.18,0-78.84,0-157.67c0-2.36-.06-4.72.05-7.07.13-2.77,1.29-3.38,3.71-2.14a88.89,88.89,0,0,0,31.07,9c12.51,1.39,24.44-.8,36.3-4.2a58.83,58.83,0,0,0,10.23-4.49c1-.52,2-1.34,3.12-.56a3.44,3.44,0,0,1,1.19,3q0,25.77,0,51.55Z"/><path class="cls-2" d="M1131.56,527.46l-13.22-.06a2.89,2.89,0,0,1-2.09-2.4c-1.73-6.48-5.22-12.24-7.54-18.48-.84-2.28-1.55-4.61-2.53-6.83-.37-.84-.89-2-2-1.71s-.77,1.42-.78,2.23c0,2.27,0,4.54,0,6.8,0,2.07.36,3.92,2.52,5a2.71,2.71,0,0,1,1.59,2.52c0,3.49,0,7-.12,10.45,0,1.65-.87,2.59-2.63,2.44h-21.07c-2,0-2.73-1.07-2.69-3,0-2.27,0-4.54-.14-6.8a6.91,6.91,0,0,1,3.06-6.53c1.42-.94,1.65-2.39,1.65-3.9,0-13.44,0-26.88,0-40.32,0-1.79-.39-3.23-2.4-3.8-1.48-.41-1.83-1.79-2-3.09a45.3,45.3,0,0,1-.13-9.67c.18-2.13,1.26-3.48,3.43-3.52,5.24-.09,10.48-.14,15.71,0,2.34.07,3.88,1.45,4.79,3.78,2.84,7.33,5.85,14.59,8.84,21.86.27.66.43,1.61,1.54,1.49s.9-1.16,1-1.83a21.89,21.89,0,0,0,.13-6.26,2.94,2.94,0,0,0-1.58-2.53c-1.88-1-2.49-2.72-2.39-4.84.13-2.88,0-5.76.13-8.64.08-2.16,1.15-3.26,3.48-3.23,6.12.09,12.23,0,18.35.07,3,0,4.25,1.23,4.42,4.28.14,2.52,0,5.06.08,7.59,0,2.34-.39,4.34-3.16,4.91a1.59,1.59,0,0,0-1.29,1.72c0,1.13-.23,2.25-.23,3.38q0,20.57,0,41.11c0,4.71.16,9.42.27,14.12C1134.69,525.94,1133.89,527.32,1131.56,527.46Z"/><path d="M924.76,522a4.18,4.18,0,0,1-.83-2.45c.48-5.33-1-10.58-.6-15.92.59-8-.84-16-1-24a6.91,6.91,0,0,1,0-.78c.83-11.26-.54-22.49-.73-33.73-.35-20.84-.9-41.68-1.09-62.52-.15-16.4-.1-32.8-.45-49.19-.73-34-.51-68.09-.59-102.13,0-10.82,0-21.65.28-32.47.35-12.65.21-25.31.4-38,.24-15.18.35-30.37.61-45.55.29-16.92.61-33.84,1.06-50.76.42-16,1.88-32,1.71-48.12,0-3.6-.16-7.47,1-11.25A4.37,4.37,0,0,1,925.35,8c-.31,5.16.22,10.29.49,15.43,1.11,20.9,1.59,41.83,1.95,62.76.05,3,.34,6.09.38,9.14.24,18.33.23,36.66.69,55,1,39.54.75,79.08.95,118.61.12,23.23,0,46.45-.22,69.68-.19,19.89-.69,39.78-1,59.67-.22,13.6-.3,27.21-.56,40.81s-.61,27-1,40.54c-.25,8.37-.85,16.72-.94,25.1-.06,5-.87,9.9-.75,14.88A10.6,10.6,0,0,1,924.76,522Z"/><path class="cls-2" d="M1678.94,527.39l-47.82.05c-1.76-.07-2.68-.86-2.66-2.75,0-3.31,0-6.63-.09-9.94a3.63,3.63,0,0,1,2-3.4,3.84,3.84,0,0,0,1.88-3.72q-.06-20.69,0-41.37c0-1.35-.16-2.37-1.62-2.86s-2-1.79-2.18-3.28a56.63,56.63,0,0,1,.11-11,2.3,2.3,0,0,1,2.14-2.24,12.38,12.38,0,0,1,2.34-.19c14.4.57,28.8-.58,43.2-.08,4.65.17,5.3.68,5.3,5.27,0,4.36,0,8.73,0,13.09,0,3.68-.75,4.39-4.49,4.41-3.41,0-6.81,0-10.22-.05-1.91,0-3.14-.73-3.2-2.9s-1.23-3.39-3.66-3.31-4.87-.31-7.32.06a2.76,2.76,0,0,0-2.62,2.66c-.62,3.6.09,7.13.23,10.69a2.41,2.41,0,0,0,2.37,2.61,2.45,2.45,0,0,0,2.9-2c.52-1.8,1.72-2.34,3.53-2.38,3.84-.08,7.68-.16,11.52.06,2.09.11,3,1.18,3,3.1q.08,8.5.08,17c0,3.17-.77,4-4,4.06-3.58.07-7.16,0-10.74,0a2.94,2.94,0,0,1-3-1.61,3.23,3.23,0,0,0-4.19-1.66c-1.83.56-1.6,2.07-1.61,3.44,0,2.88,0,5.76,0,8.64.07,2.39,1,4,3.81,3.8a64.83,64.83,0,0,1,6.54-.05c2,.09,2.75-.88,3-2.75.46-3.53.86-3.91,4.41-4.1,3.23-.17,6.47,0,9.69-.2,2.59-.15,3.8,1.24,3.85,3.46.11,5.5,0,11-.12,16.49C1681.29,525.93,1680.79,527.32,1678.94,527.39Z"/><path class="cls-2" d="M1315.59,527.42q-17,0-34-.07c-4.44,0-8.88.06-13.32.09-1.75-.08-2.68-.85-2.66-2.75,0-3.06-.12-6.11-.13-9.16a3.94,3.94,0,0,1,2.35-4c1.41-.6,1.71-1.76,1.9-3.14.57-4.19-.1-8.37,0-12.55.26-9.42,1.11-18.83.2-28.26-.21-2.11-.3-4-2.8-4.69a2.47,2.47,0,0,1-1.58-2.5c-.14-3.56-.73-7.11.12-10.67.32-1.35.88-2.29,2.31-2.37,2.69-.17,5.33-.74,8.07-.72,12.67.12,25.34.06,38,.06,3.49,0,4.67.93,4.75,4.37.11,5.15,0,10.3-.07,15.45,0,1.92-.81,2.77-2.84,2.82-3.93.12-7.86.19-11.79,0-1.8-.08-2.77-.91-2.73-2.74,0-2.32-1.28-3.32-3.39-3.4-2.44-.1-4.88-.11-7.32-.07-1.93,0-3.13,1-3.15,3,0,3.41-.12,6.81,0,10.21,0,1.3.37,2.63,2.13,2.79s3.22,0,3.66-2c.4-1.81,1.55-2.28,3.24-2.27,3.75,0,7.51,0,11.26,0,2.08,0,3.1.93,3.14,3.2.11,5.76.29,11.52,0,17.28-.17,3.11-.88,3.72-4.05,3.79-2.71.06-5.42,0-8.13.06-2.37,0-4.66.22-6-2.6-.59-1.28-2.22-1-3.57-.78s-1.6,1.25-1.69,2.29a73.18,73.18,0,0,0,.08,11,2.56,2.56,0,0,0,2.66,2.61,46.75,46.75,0,0,0,7.85-.1c1.85-.11,2.75-1.38,3-3.11.36-2.78,2-3.86,4.68-3.81,3.31.06,6.63.05,10,.14a2.8,2.8,0,0,1,3.07,2.87,157.89,157.89,0,0,1-.11,17.54C1318.53,527.1,1317.29,527.58,1315.59,527.42Z"/><path class="cls-2" d="M1047.66,527.43h-19a2.29,2.29,0,0,1-1.89-.74c-3-3.68-6.86-6.43-10.5-9.39a6.65,6.65,0,0,1-2.5-5.7c.06-14.49,0-29,0-43.47,0-2.45.05-4.76-3.21-5.3-1-.16-1.34-1.2-1.34-2.28,0-3.14-.19-6.28-.12-9.42s1.12-4.33,4.28-4.4c6.28-.15,12.58-.08,18.86,0a3.09,3.09,0,0,1,3.23,3.13c.17,3.65.06,7.31,0,11a2.35,2.35,0,0,1-1.85,2.25c-1.72.56-2.1,1.88-2.1,3.47,0,12.83-.07,25.66,0,38.49a6.65,6.65,0,0,0,6.12,6.55c3.16.2,6.93-2.68,7.45-5.76a13,13,0,0,0,.18-2.34c0-12.29.85-24.6-.28-36.89-.15-1.61-.38-2.91-2.08-3.48s-2-1.85-2.13-3.28a65.16,65.16,0,0,1-.09-9.68,2.8,2.8,0,0,1,2.23-2.84,13.78,13.78,0,0,1,4.1-.64c5.42.07,10.84.17,16.25,0,2.62-.1,3.42,1.29,3.68,3.34a65.23,65.23,0,0,1,0,10.46,3.06,3.06,0,0,1-1.79,2.71c-1.76.87-2.16,2.3-2.16,4.09,0,14.14,0,28.28.1,42.41,0,3.42-.77,5.87-3.72,8-3.46,2.47-6.12,5.95-9.54,8.54C1049.16,526.65,1048.61,527.36,1047.66,527.43Z"/><path class="cls-2" d="M1443.51,527.45c-11.91-.26-23.82-.18-35.72,0-2.32-.19-2.48-2.2-2.51-3.66a125.26,125.26,0,0,1,.45-18.27c.17-1.33.56-2.29,2.21-2.33,4.18-.11,8.33-.73,12.54-.1a2.83,2.83,0,0,1,2.75,2.2c2,6.84,6.58,6.86,11.66,6.17a6.53,6.53,0,0,0,5.68-6.27c.21-2.49.24-5.05-1.34-7.26a5.59,5.59,0,0,0-4.9-2.52c-3.23,0-6.47-.15-9.69,0a9,9,0,0,1-7.29-2.56c-3.35-3.17-6.91-6.11-10.14-9.42a6.48,6.48,0,0,1-2-4.9c.14-5.21.1-10.43.21-15.65.08-3.8,3.22-5.61,5.52-7.89,2-2,4.31-3.79,6.46-5.7a9.44,9.44,0,0,1,6.85-2.7c3.23.11,6.46,0,9.69,0a2.73,2.73,0,0,1,1.29.09c3.85,2.24,7.74.53,11.63.22,2.6-.21,5.23-.09,7.85-.11s3.93,1.42,4,3.83c.07,5.76-.05,11.52-.07,17.28,0,2.74-1.57,3.76-4.08,4a101.27,101.27,0,0,1-10.74.12c-1.72,0-2.61-.9-3-2.64-1.07-4.65-3.61-6.54-8.45-6.31-2.92.13-6.1-.09-7.79,3.12a10.8,10.8,0,0,0-.08,9.76c1.23,2.7,4,3.82,7,3.46s5.92.1,8.87-.21a8,8,0,0,1,6.62,2.53,101.67,101.67,0,0,0,9,8c2.51,2,2.72,4.81,2.72,7.59,0,4.88-.31,9.75-.4,14.63a5.83,5.83,0,0,1-2.23,4.73C1451.76,520.2,1447.66,523.85,1443.51,527.45Z"/><path class="cls-2" d="M1748.2,449.75v19.49c-.07,1.75-.81,2.62-2.73,2.68-3.93.14-7.85.19-11.78,0-1.84-.07-2.77-.84-2.94-2.85a6.29,6.29,0,0,0-6.16-5.9,32.92,32.92,0,0,0-6.51.37,5.06,5.06,0,0,0-4.1,4.2c-.24,1-.15,2.09-.29,3.12-.86,6.62,3.49,8.46,8.33,8.71,3,.16,6.07-.38,9.14-.18a9.15,9.15,0,0,1,6.26,2.73,96.14,96.14,0,0,0,8.87,8.12,3.88,3.88,0,0,1,1.94,3q0,9.76,0,19.51a4.19,4.19,0,0,1-1.8,3.74c-3.66,3.17-7.15,6.54-10.73,9.81a15.22,15.22,0,0,1-1.69,1.15c-12.08-.17-24.16-.51-36.24,0a2.31,2.31,0,0,1-2.15-2.44c-.23-6.1-.19-12.21-.08-18.31,0-2.41.89-3.69,3.59-3.58,3.84.16,7.68,0,11.52,0,1.79,0,2.83.72,2.89,2.55.1,2.71,1.66,4.24,4,5.16a12.75,12.75,0,0,0,9.43.05,5.2,5.2,0,0,0,3.63-5c0-2.72.72-5.55-1.29-8a6,6,0,0,0-5-2.29c-3.85,0-7.69,0-11.53,0a6.12,6.12,0,0,1-4.41-1.86q-5-4.65-10.17-9a7.4,7.4,0,0,1-2.78-6.17c0-5.49.13-11,.16-16.48a4.07,4.07,0,0,1,1.41-3.22c2.79-2.51,5.86-4.78,8.27-7.6,3.55-4.17,8.09-4.71,13-4.59a31.41,31.41,0,0,1,4.92.56,36.91,36.91,0,0,0,13.42-.19,38.86,38.86,0,0,1,8.89-.19C1747.4,446.91,1748.48,447.71,1748.2,449.75Z"/><path class="cls-2" d="M1229.59,527.42l-13.21,0c-2.24.25-2.72-1.3-3.15-3-2.75-10.91-5.61-21.8-8.29-32.74-2.11-8.59-4.23-17.17-6.77-25.65-.47-1.55-1.11-2.76-2.7-3.19s-2-1.66-2-3c-.1-3.06-.19-6.11-.07-9.16.1-2.75,1.43-3.81,4.17-4,5.94-.38,11.85.42,17.78.58,4,.1,4.3.68,4.4,4.73,0,1.92,0,3.84.06,5.76.06,2.33,0,4.53-2.48,5.83-.9.47-1,1.46-.7,2.54,1.56,5.77,3,11.57,4.53,17.36.2.81.42,1.67,1.32,1.69.72,0,1.06-.75,1.25-1.48,1.52-5.78,3.4-11.46,4.4-17.38.24-1.41.14-2.38-1.13-3.06a3.35,3.35,0,0,1-1.82-3.45c.1-3.22.12-6.45.13-9.67,0-2.23,1.18-3.46,3.31-3.48,6.37,0,12.74.05,19.12.09,2.09,0,3.08,1.1,3.33,3.15a78.14,78.14,0,0,1,.12,10.71,2.15,2.15,0,0,1-1.46,2.25c-2.64.85-3.49,3-4,5.38-3,14.9-7.7,29.35-11,44.15-.85,3.79-1.91,7.54-2.64,11.37C1231.84,525.32,1231.42,526.91,1229.59,527.42Z"/><path class="cls-2" d="M1553.12,527.43l-20.56,0c-1.79,0-2.67-.9-2.63-2.78q.09-4.83,0-9.68c0-1.49.48-2.7,1.83-3.15,2.6-.84,2.72-2.83,2.72-5,0-9.42,0-18.85,0-28.27,0-4,.17-8,.21-12,0-1.33-.06-2.88-1.78-3s-2.32,1.42-2.32,2.85c0,5.85-.63,5.51-6.44,5.69-2.7.08-5.41-.12-8.11-.2a2.56,2.56,0,0,1-2.81-2.73c-.14-6.11-.39-12.21-.31-18.32,0-3.38,1.13-4.12,4.61-4.12h52.14c3.1,0,3.71.51,3.88,3.52.35,6.19.28,12.38,0,18.57-.08,2.1-.83,3.22-3.12,3.18-3.66-.06-7.33.15-11,.06-2.89-.07-3.66-1.14-3.82-4.1-.07-1.45.91-3.89-1.57-3.93s-1.85,2.57-1.85,4.06c0,9.76.19,19.52.3,29.27,0,3.48,0,7,0,10.45a4.12,4.12,0,0,0,1,3.12,10.78,10.78,0,0,1,2.91,8.37c-.06,1.65,0,3.31,0,5C1556.41,526.38,1555.55,527.71,1553.12,527.43Z"/><path class="cls-2" d="M1497,527.41h-21.6c-1.75-.06-2.7-.8-2.68-2.71,0-3.14-.09-6.28-.09-9.42,0-1.36.37-2.7,1.8-3.18,2.39-.81,2.34-2.72,2.34-4.65q0-15.18,0-30.35c0-3.49,0-7,0-10.47,0-1.69-.36-3.11-2.27-3.61a2.25,2.25,0,0,1-1.74-2.54c0-3.48-.25-7,.06-10.45.21-2.29,1.31-3.41,3.7-3.39,5.76.06,11.53,0,17.29,0,4.13.05,5.2,1.19,5.24,5.31,0,1.92-.11,3.84,0,5.75.18,2.63-.15,4.82-3.06,5.87-1.09.4-1.19,1.55-1.19,2.67.05,13.34,0,26.69.09,40,0,2.24,0,4.49,2.49,5.81a3.54,3.54,0,0,1,1.4,2.41,54.14,54.14,0,0,1,.11,11C1498.87,526.48,1498,527.1,1497,527.41Z"/><path class="cls-2" d="M1610.27,527.44h-19c-3.34-.3-3.61-.6-3.61-4,0-2.09.07-4.19,0-6.28-.1-2.51-.14-4.85,2.78-6.06,1.23-.51,1.42-2,1.37-3.2-.51-12.11,1.54-24.2.25-36.31a41.05,41.05,0,0,1-.2-4.7c0-1.68-.32-2.94-2-3.83s-2.13-2.68-2.16-4.49c0-2.71.11-5.41,0-8.11-.13-2.45,1-3.57,3.29-3.71a57.22,57.22,0,0,1,6.8-.14c4.6.29,9.23-.41,13.82.49,1.69.32,2.43,1,2.42,2.72,0,3.31.07,6.62.1,9.93,0,1.62-.54,2.9-2.23,3.41-1.53.47-1.88,1.68-1.88,3q0,19.37.09,38.72c0,1,0,2.08,0,3.12,0,1.43.27,2.72,1.77,3.47a4.12,4.12,0,0,1,2.32,4.29c-.11,2.61.06,5.23-.05,7.84C1613.94,527,1613.62,527.29,1610.27,527.44Z"/><path class="cls-2" d="M1176.63,527.41h-20.55c-2,0-2.72-1.08-2.69-3,0-3.22-.05-6.45-.06-9.68,0-1.07.15-2.14,1.25-2.67,2.08-1,2.35-2.85,2.35-4.81q0-20.29,0-40.59c0-1.67-.35-3.07-2.14-3.75a2.49,2.49,0,0,1-1.46-2.56,106.7,106.7,0,0,1,.13-10.73c.14-1.8,1.06-2.88,2.77-2.76,6.55.46,13.07-.58,19.61-.21a3.31,3.31,0,0,1,3.39,3.28,67,67,0,0,1,.14,9.92c-.07,1.63-.65,2.85-2.37,3.31-1.56.41-1.9,1.69-1.93,3.05-.35,14.21-1.43,28.41-.06,42.63a2.59,2.59,0,0,0,1.79,2.6,3.29,3.29,0,0,1,2.45,3.3,56.12,56.12,0,0,1,0,10.45A2.15,2.15,0,0,1,1176.63,527.41Z"/><path class="cls-4" d="M736.38,465.71c0,2.27,0,4.54,0,6.81-.11,3.87-3.19,5.72-6.53,3.6-2-1.25-3.35-1-5.23-.08-10.06,4.85-22.55-1.41-25.91-12.89-4.07-13.92,6.33-27,20.67-25.9a19.07,19.07,0,0,1,12.57,5.65c1.3,1.34,3.08,2.65,2.19,4.81-.58,1.42-5,2.22-6.77,1.44a18.82,18.82,0,0,1-2.23-1.34c-4.54-2.82-11-2.77-14.24,0-5,4.38-5.23,10.62-3,15.49,2,4.35,7.42,6.43,13.56,5.44a9.18,9.18,0,0,0,6.27-3.84c1.1-1.53.63-2.5-1.12-2.71s-3.49-.14-5.23-.23c-2.33-.11-3-1.51-3.1-3.66s1.06-3.18,3.09-3.34a88.72,88.72,0,0,1,12.31,0c1.82.1,2.62,1.05,2.58,2.87-.05,2.62,0,5.23,0,7.85Z"/><path class="cls-4" d="M557.73,459.25c1.3-.43.9-1.87.91-2.91.06-4.54,0-9.07.06-13.61,0-4,3.63-6.15,7.31-4.32,1.12.56,1.33,1.77,1.34,2.91,0,2.35,0,4.71-.05,7.06,0,7.84,0,15.68,0,23.52,0,1.65.49,4-1.57,4.48-2.52.58-5.47,1.26-7.52-1.37-2.45-3.17-4.83-6.4-7.22-9.62-2.23-3-4.42-6-6.64-9.06-.57-.77-1.2-1.73-2.31-1.23-.87.39-.4,1.4-.4,2.11,0,5.32.46,10.64,0,16-.25,3.23-.66,3.57-4.64,3.5-3.24-.05-4-.64-3.92-3.77.13-5.23.17-10.46.06-15.68,0-4.8,0-9.6,0-14.39,0-1.64-.56-4,1.64-4.44,2.64-.54,5.63-1.14,7.7,1.64q4.07,5.45,8.1,10.92"/><path class="cls-4" d="M49.62,457.66c0-5.05,0-10.11,0-15.17,0-1.47-.43-3.69,1.48-4,2.25-.4,4.75-1.1,6.88,1.05,3.45,3.5,6.21,7.53,9.16,11.41,1.53,2,2.9,4.13,4.42,6.14.72.94,1.43,2.55,2.68,2.13s.92-2.17.93-3.39c0-4.28,0-8.55,0-12.82.05-4.63,1.73-5.86,6.28-4.71a2.32,2.32,0,0,1,1.91,2.44c.09,2.87.28,5.75.23,8.62-.15,7.5-.06,15,.18,22.49,0,1.78.36,3.81-1.86,4.7s-6.32-.07-7.45-1.74c-3.87-5.69-8.64-10.71-12.25-16.59a3.23,3.23,0,0,0-.44-.65c-1-.93-1.51-2.93-3-2.44s-.59,2.26-.6,3.45c-.08,4.89-.12,9.78,0,14.66.06,2.5-1.11,3.44-3.42,3.54-4.33.18-5-.32-5.13-4.69C49.52,467.26,49.62,462.46,49.62,457.66Z"/><path class="cls-4" d="M237.46,477.62c-5-.41-10.39-2.25-13.3-8.31-.68-1.42-1.84-3.21.64-4.43,3.18-1.56,4.92-1.53,6.29.68,2.16,3.48,5.27,4.65,9.14,4.12,1.94-.26,3.52-1.23,4-3.26s-.94-3-2.43-3.9a23.16,23.16,0,0,0-5.33-2.12,35.64,35.64,0,0,1-6.75-2.74c-3.81-2-6-5.17-5.69-9.48.34-5,3.46-7.94,8.28-9.48,4-1.29,7.81-2.15,11.88-.41a15.28,15.28,0,0,1,7.46,6.26c1.51,2.54.93,3.67-1.79,4.66s-4.88.7-6.71-2c-1.57-2.3-5.53-3-8.09-1.92a3.28,3.28,0,0,0-2.24,2.66c-.17,1.37.72,2.08,1.69,2.71,2.52,1.61,5.46,2.22,8.2,3.32a22.14,22.14,0,0,1,7.15,4.2,10.54,10.54,0,0,1-1.7,16.78C245.24,476.76,242.1,477.66,237.46,477.62Z"/><path class="cls-4" d="M455.59,457.76c0-5.15,0-10.3,0-15.45,0-3.54.66-4.23,4.07-4.24,6.64,0,13.28.06,19.91.08,2.31,0,3.59.8,3.36,3.41-.26,2.8-1.38,4.27-3.84,4.3-3.67,0-7.34,0-11,0-3.42,0-4,.59-4,3.64s.5,3.4,3.87,3.43c2.71,0,5.42.09,8.12,0s3.06,1.5,3.11,3.53,0,3.92-2.87,3.87c-3.15-.05-6.29.14-9.44.16-2.08,0-2.91,1-2.95,3.05-.08,4.9.31,5.43,5.21,5.5,3.58.05,7.17-.07,10.75-.05,3,0,3.56.61,3.58,3.76s-.41,3.71-3.45,3.83c-7.07.26-14.14.2-21.22.06-2.37-.05-3.42-1-3.35-3.47.13-5.14,0-10.3,0-15.44Z"/><path class="cls-4" d="M151.47,457.17c0-5.32,0-10.64,0-16,0-2,.84-3.13,2.93-3.12,7.07,0,14.14.07,21.21.06,2.6,0,3.4,1.32,3.47,3.78.07,2.61-1,3.69-3.48,3.74-3.92.07-7.85.1-11.78.2-1.91,0-3.95-.17-4,2.81,0,3.65.13,3.86,3.51,4.36a43.14,43.14,0,0,0,8.35,0c2.48-.1,3.4.83,3.52,3.4.14,2.93-.54,3.82-3.13,3.9-3.06.1-6.11.18-9.16.19-2.19,0-3.07.92-3.08,3.17,0,5.08-.1,5.15,5.1,5.3,3.66.11,7.33,0,11,0,2.1,0,3.47.54,3.45,3.09,0,3.94-.16,4.47-3.23,4.57a195.23,195.23,0,0,1-20.67-.2c-3.6-.26-3.88-.68-3.9-4.39,0-5,0-9.93,0-14.9Z"/><path class="cls-4" d="M506.8,437.2c7.43.27,12.83,1.93,17,6.72,2.44,2.83,2.08,4.25-1.4,5.32-2.74.85-4.88.6-7.06-1.62-2.35-2.39-9.82-2.37-12.65-.43-4.38,3-6.58,8.2-5.34,12.64,2.62,9.35,12.29,12.25,19.64,5.89,1.78-1.53,6.25-1.75,8.11-.4,1.45,1.05,1,2.29.26,3.45-2.67,4.44-6.75,6.89-11.67,8.1-8.94,2.19-18.29-1.57-22.31-9-4.68-8.62-3.45-19,3.39-25.15A21.89,21.89,0,0,1,506.8,437.2Z"/><path class="cls-4" d="M760.66,457.05c-.09-10.92,8.35-19.86,19.31-19.78,5.41,0,10.73,1.42,14.75,5.58,1.3,1.35,3,2.7,2.12,4.91-.62,1.47-5.14,2.18-7,1.25-1.16-.59-2.23-1.37-3.38-2a11.92,11.92,0,0,0-14.15,2.19A12.9,12.9,0,0,0,771,463.69c2.19,3.65,5.66,5.72,11.15,5.22a10.66,10.66,0,0,0,6.95-3.13c1.55-1.55,6.16-1.94,7.85-.64s1.24,2.63.17,4.12a20.27,20.27,0,0,1-24,6.89C765.46,473.1,760.74,465.87,760.66,457.05Z"/><path class="cls-4" d="M7.69,452c0-3.57-.11-7.15,0-10.72.11-2.7,1.1-3.27,4.53-3.16s3.9.56,4,3.35c.35,7.32-.18,14.65.47,22a6.44,6.44,0,0,0,5.58,5.84c6.9.93,10.23-1.81,10.39-8.82.14-5.75,0-11.51.05-17.27,0-4.62,2.81-6.44,7.15-4.79a2,2,0,0,1,1.49,1.92c.15,8.09,1,16.22-.54,24.25a16.5,16.5,0,0,1-17,13.18c-9.07-.59-15.46-6.74-16-15.53-.19-3.39,0-6.8,0-10.2Z"/><path class="cls-4" d="M126.89,476.48c-3.46.82-5.06-.9-6.19-3.79-4-10.2-8.16-20.33-12.21-30.51-1.28-3.24-.61-4.11,2.87-4.1,4.55,0,4.74.12,6.4,4.44,2.38,6.24,4.7,12.5,7.12,18.72.35.91.55,2.24,1.88,2.21s1.28-1.3,1.6-2.13c2.45-6.39,5.23-12.64,7.34-19.16a6.35,6.35,0,0,1,8.63-3.86,1.4,1.4,0,0,1,.92,1.4,6,6,0,0,1-.5,2.79c-4,10.06-8.12,20.1-12.06,30.19C131.58,475.53,130.17,477.48,126.89,476.48Z"/><path class="cls-4" d="M434.29,507.47c0,5.07,0,10.13,0,15.19,0,1.67-.09,3.59-2.44,3.57s-1.9-2.07-1.92-3.53c-.07-6.54-.06-13.09-.11-19.63,0-1.11.17-2.73-.79-3.07-1.36-.48-2,1.18-2.57,2.14-2.39,3.94-4.61,8-7,12-2.08,3.52-3.62,3.66-5.86.27s-4.16-7-6.24-10.57c-.66-1.13-1.35-2.23-2-3.35-.38-.62-.86-1.17-1.67-1s-.56,1-.58,1.54c-.12,3.57-.17,7.15-.22,10.72q-.11,6-.17,12c0,1.28-.51,2.33-1.85,2.41s-1.18-1.22-1.46-2.09a12.68,12.68,0,0,1-.4-4.93c.69-9-.14-18,0-26.94,0-.53,0-1.05,0-1.57a2.3,2.3,0,0,1,1.73-2.33c1.2-.44,1.78.4,2.31,1.2q5.13,7.73,9.64,15.83c1,1.75,1.48,4.5,3.75,4.59s2.51-2.76,3.51-4.36c2.73-4.35,5.21-8.86,7.91-13.23,1.14-1.83,2.75-4.4,4.78-3.84s1.45,3.59,1.48,5.62c.06,4.45,0,8.9,0,13.34Z"/><path class="cls-4" d="M7.67,507.65c0-5.42,0-10.83,0-16.24,0-1.3,0-2.71,1.67-3.18s2.27.93,3,2c3.71,5.69,7.28,11.46,10.56,17.41.57,1,.9,2.38,2.38,2.52,1.66.16,1.82-1.38,2.4-2.35,2.84-4.8,5.63-9.63,8.42-14.46a15.6,15.6,0,0,1,3.7-4.35c1.61-1.32,2.53-.58,3.07,1a7.53,7.53,0,0,1,.16,2.34c0,9,0,17.94-.06,26.92,0,1.73-.35,3.47-.42,5.2,0,1.13-.73,1.53-1.61,1.72s-1.34-.48-1.77-1.2a5.63,5.63,0,0,1-.53-3.05c.06-5.58-.37-11.17.37-16.74a14.22,14.22,0,0,0,0-3.91c-.11-.76.31-2-.77-2.24s-1.57.89-2,1.69c-1.46,2.47-2.86,5-4.3,7.45s-2.6,4.75-4.15,7c-1.78,2.55-3,2.47-4.63-.11-2.8-4.51-5.52-9.06-8.29-13.59-.52-.86-.82-2.3-2.07-2-1.4.34-.94,1.87-1,2.89-.06,5.94,0,11.88,0,17.81,0,1.31-.13,2.62-.21,3.92s-.76,2.22-2.11,2.12-1.63-1.12-1.63-2.29V507.65Z"/><path class="cls-4" d="M428.71,461.22c0-3.83,0-7.66,0-11.5-.05-3.44-.47-3.79-4-3.86-1.66,0-3.31-.12-5-.18-2.52-.09-2.51-1.89-2.52-3.7s.14-3.59,2.52-3.83c.95-.09,1.92-.11,2.87-.11,7.68,0,15.35,0,23,.11,3.44.06,5.12,3.34,3.49,6.38a2.11,2.11,0,0,1-2.16,1.11c-1.65-.05-3.31,0-5,.05-4,.15-4.61.71-4.65,4.84,0,6.63,0,13.25.07,19.87,0,1.13.07,2.27,0,3.4-.07,1.83-.88,2.94-2.9,2.83-.87-.05-1.74,0-2.61,0-2.1,0-3.2-.85-3.15-3.14.1-4.09,0-8.19,0-12.29Z"/><path class="cls-4" d="M621.65,457.82c0-5.32,0-10.64,0-16,0-1.38,0-3,1.67-3.49a7.59,7.59,0,0,1,5.59.36c1,.51.8,1.47.81,2.29q.12,11.64.2,23.29c0,4.36.27,4.67,4.75,4.75,3.49.06,7-.07,10.47-.05,3,0,3.52.65,3.54,3.79s-.41,3.69-3.44,3.81c-6.72.26-13.44.2-20.16.06-2.31-.05-3.46-.87-3.39-3.42.14-5.14,0-10.29,0-15.43Z"/><path class="cls-4" d="M826.39,527.45l-7.45,0c-3.79-1.31-7.18-3.17-9.11-6.92a6.58,6.58,0,0,1-.94-3.47c.06-.84.63-1.16,1.28-1.47a1.35,1.35,0,0,1,1.81.57,10.61,10.61,0,0,1,.88,1.59,11.65,11.65,0,0,0,15.43,4.86c2.58-1.29,4.26-3.28,4.3-6.32s-1.71-4.71-4.16-5.76c-2.7-1.16-5.52-2.06-8.3-3a31.78,31.78,0,0,1-6.78-3.31,8.53,8.53,0,0,1-1.51-13c5.41-5.55,18.76-5.72,23.2,2.86a7.93,7.93,0,0,1,.56,1.18c.33,1.15.36,2.21-1,2.88s-2.11,0-2.69-1.12c-1.85-3.64-4.75-5.81-8.88-5.84-3.06,0-6.17.21-8.28,3a4.8,4.8,0,0,0,1,7.26c2.66,2,5.9,2.51,9,3.45a30.72,30.72,0,0,1,6.74,2.76c5.61,3.31,8.17,13,.12,17.64A15.76,15.76,0,0,1,826.39,527.45Z"/><path class="cls-4" d="M753.63,456.88c0,5.32.09,10.65,0,16-.08,3.46-.64,3.81-4.39,3.82-3.54,0-4.23-.43-4.25-3.7q-.13-15.72,0-31.42c0-2.93.95-3.54,4.26-3.48,3.64.07,4.26.51,4.3,3.62.07,5.06,0,10.12,0,15.19Z"/><path class="cls-4" d="M268.48,457.07c0,5.57.46,11.13.13,16.7-.18,3-2.16,3-4.17,2.94s-4,0-4-3.09c.05-10.37-.13-20.74-.09-31.1,0-4.07,2.87-5.72,6.73-4.15a2.3,2.3,0,0,1,1.4,2.5C268.47,446.27,268.48,451.67,268.48,457.07Z"/><path class="cls-4" d="M93.65,457.65c0-5.31-.09-10.63,0-15.94.07-3.12.89-3.71,4-3.63,3.44.08,4,.46,4,3.57.11,10.19.18,20.38.14,30.56,0,4.07-3.07,5.83-6.82,4.19-1.16-.5-1.32-1.45-1.32-2.56,0-5.39,0-10.79,0-16.19Z"/><path class="cls-4" d="M218.91,509c0-4.54,0-9.07,0-13.61,0-2.41-1.06-3.5-3.48-3.45-2.18.05-4.36,0-6.54-.05-1.44,0-2.74-.5-2.74-2.12s1.36-1.88,2.64-1.88c7.94,0,14.58-.06,22.52,0a19.46,19.46,0,0,1,2.86.22,1.76,1.76,0,0,1,1.32,1.74c.07,1.08-.69,1.23-1.5,1.42a44.58,44.58,0,0,1-7.55.72c-3.09.18-3.73.65-3.63,3.79.24,8.2.31,16.39.15,24.59a36.31,36.31,0,0,1-.24,3.91,2,2,0,0,1-2.08,1.93c-1.3,0-1.52-1.08-1.55-2-.12-4.09-.15-8.19-.2-12.28,0-1,0-1.92,0-2.88Z"/><path class="cls-3" d="M1015.86.05c-1.22,0-2.44,0-3.67,0-1.85.05-2.93.92-3,2.86,0,1-.12,1.92-.12,2.88V72.88a29.81,29.81,0,0,0,.15,3.13c.2,2,1.19,3.12,3.4,3.06q6-.18,12.06-.1c5.32.07,5.35.16,5.36,5.48.12,78-.25,155.93.19,233.89,0,2.18-.06,4.37-.2,6.55-.19,3.12-.71,3.59-3.81,3.64-4.28.07-8.56.09-12.84.17-3.77.08-4.15.47-4.29,4.19,0,.78,0,1.57,0,2.35q0,32.36,0,64.7c0,7.55.13,7.67,7.83,7.67h186.9c1.22,0,2.45-.06,3.67,0a6.72,6.72,0,0,0,5.33-2.2c7-6.74,13.94-13.44,21.16-19.91,15.6-14,30.94-28.24,46.39-42.38a3.18,3.18,0,0,0,1.11-2.27c.14-2.61.48-5.21.49-7.82.11-31.26.25-62.51.22-93.76,0-11.76,1.67-8.73-8.62-17.58-6-5.17-11.71-10.72-17.52-16.13-1.37-1.27-1.58-2.65-.06-4,1.68-1.51,3.32-3.08,5.07-4.52,6.12-5.06,11.1-11.37,17.57-16.06,2.74-2,3.68-4.69,3.66-8.16-.11-27.67-.06-55.35-.06-83,0-7.07,0-14.14,0-21.21a6.39,6.39,0,0,0-2.32-5.26c-3.31-2.85-6.52-5.8-9.74-8.75-8.7-7.95-17.14-16.19-26.12-23.8-10.4-8.81-19.87-18.6-29.93-27.76a10.2,10.2,0,0,0-7.41-3M1196,307.16a4.58,4.58,0,0,1-1.62,3.41c-5.94,5.25-11.07,11.4-17.53,16.11a8.92,8.92,0,0,1-5.54,1.88c-17,0-34.08,0-51.12,0-3.86,0-4.2-.37-4.2-4.12V294.34h-.09c0-10.63,0-21.25,0-31.88,0-5.32-.31-10.64.13-16,.2-2.34,1.2-3.42,3.62-3.41,17.48,0,34.95,0,52.43,0a6.14,6.14,0,0,1,4.3,1.55c5.43,4.92,11.23,9.42,16.48,14.56a11.2,11.2,0,0,1,3.43,8.67C1196.13,281,1196.48,294.07,1196,307.16Zm-4-158.51c-5.3,4.54-10.44,9.26-15.64,13.91-1.08,1-2.45.9-3.71.91-17.21.06-34.41.11-51.61.05-4.91,0-5-.27-5-5.05V118.53c.21-7.09-.21-18-.35-28.89,0-2.53.24-5,.38-7.56s1.44-3,3.5-3c4.36,0,8.73,0,13.1,0,12.83,0,25.67,0,38.51,0a9.17,9.17,0,0,1,7,2.53c5.14,5,10.93,9.23,15.79,14.52a6.64,6.64,0,0,1,2,4.65c.09,12.56.28,25.12.33,37.67A12.56,12.56,0,0,1,1192,148.65Z"/><path class="cls-2" d="M1391.57,515.36c0-1.4-.39-2.72-1.74-3.23-2.63-1-3.8-3.23-4.92-5.48-1.65-3.34-3.18-6.75-4.76-10.14s-1.23-4.27,1.56-6.62c2.2-1.85,4.28-3.84,6.39-5.78a5.39,5.39,0,0,0,1.84-3.65,132.29,132.29,0,0,0,0-18.57,5.34,5.34,0,0,0-2.35-4.19,65.46,65.46,0,0,1-9-8,9.72,9.72,0,0,0-7-3c-11.71,0-23.41,0-35.12,0-2.41,0-3.53,1.42-3.64,3.56-.15,2.87-.06,5.76,0,8.63.06,1.63.62,3.3,2.1,4,2.21,1,2.31,2.74,2.32,4.73,0,12.66.1,25.31.13,38a34.26,34.26,0,0,1-.26,3.64,2.51,2.51,0,0,1-2,2.43c-1.88.44-2.36,1.86-2.36,3.57,0,2.8,0,5.59,0,8.38,0,3,.55,3.57,3.61,3.87h19c3.37-.15,3.71-.45,3.83-3.76.09-2.35.13-4.71.11-7.06,0-2-.34-4-2.23-5s-2.05-2.5-2.09-4.17c-.07-2.78-.1-5.58,0-8.36.05-1.29-.26-2.95,1.74-3.3a3.72,3.72,0,0,1,4.22,1.76c2.28,3.53,3.8,7.4,5.55,11.18a2.82,2.82,0,0,1,0,2.5c-2,4.3-1.53,8.85-1.41,13.37,0,1.72.82,2.8,2.69,2.81h21.6a2.64,2.64,0,0,0,2.07-2.89C1391.52,521.47,1391.57,518.41,1391.57,515.36Zm-19.44-40.56c-.73,2.46-4,4.33-7.6,4.36-2.09,0-4.18-.12-6.26,0-2.29.13-3.17-1-3.16-3.09v-4.95c.26-8.7-.9-7.9,7.83-7.9,2.13,0,4.4-.37,6.3,1C1372,466.13,1373.27,470.92,1372.13,474.8Z"/><path class="cls-4" d="M684.27,441.49c-2.82-2.36-6.19-3.4-9.68-4.17-.68-.14-1.47-.15-1.6-1s.6-1.21,1.19-1.54c1.66-.93,3.35-1.8,5-2.7,1.93-1,1.14-2.47.47-3.78s-1.42-2.64-3.19-1.67c-3.21,1.74-6.37,3.56-9.53,5.38a1.57,1.57,0,0,0-.7,2.41c1.25,2.09.48,3-1.64,4.07-7.78,3.78-13.17,9.39-13.1,15.75-.08,15.65,12.76,25.95,24.89,22.8,8-2.08,13.32-7,15-15.27S690.67,446.83,684.27,441.49Zm-12.55,27.45a11.5,11.5,0,0,1-11.62-11.71c-.07-5.07,4.48-11.56,11.38-11.47,8,.11,11.44,4.92,11.57,12C683.17,464.37,678.22,469.4,671.72,468.94Z"/><path class="cls-4" d="M594.57,437.24a19.28,19.28,0,0,0-20.16,20.27c0,10.79,9.42,20.45,20.14,20.13,12.18-.36,19.86-8.79,19.92-20.37C614.53,444.49,605.29,437.48,594.57,437.24Zm.15,31.86a10.93,10.93,0,0,1-11.45-11.68c0-7.2,4.17-11.56,11.18-11.58,6.76,0,11.34,4.63,11.38,11.59S601.33,468.77,594.72,469.1Z"/><path class="cls-4" d="M278.73,473.27c0,1.52.21,3.18,2.21,3.26,6.79.28,13.65,1,20.31-.65,9.27-2.32,14.65-9.66,14.4-18.95s-5.92-16-15.2-18c-6.29-1.34-12.69-.89-19.05-.8-1.84,0-2.57,1.24-2.57,3m8.57,7.75c0-1.14.17-2.24,1.48-2.76,3.21-1.29,11.88.33,14.3,2.78A11.92,11.92,0,0,1,306.07,462c-1.67,4.59-5.56,6.44-10.17,6.9-8.23.84-8.54.53-8.6-7.57"/><path class="cls-4" d="M360.74,473.35c0,1.6.2,3.13,2.21,3.2,6.7.24,13.47,1,20.05-.63,9.05-2.19,14.48-9.24,14.42-18.05-.06-9.84-5.07-16.44-14.47-18.76-6.52-1.61-13.19-1.06-19.81-.95-1.86,0-2.49,1.34-2.49,3m8.44,7.11a2.21,2.21,0,0,1,2.47-2.39,35.72,35.72,0,0,1,8.07.33,11.17,11.17,0,0,1,9.1,11.69c-.23,6-4,10-10.09,10.81a49.57,49.57,0,0,1-6.78.16c-1.89,0-2.89-.83-2.8-2.88"/><path class="cls-4" d="M217.67,474a65.08,65.08,0,0,0-5.1-8.79c-1.08-1.71-1-3,.37-4.4,1.6-1.69,3.38-3.25,4.15-5.61,2.26-7-1.81-14.32-9.33-16.39-5-1.38-10.24-.75-15.37-.76-3.07,0-3.73.58-3.8,3.68-.12,5.32,0,10.64,0,16h.12c0,5.32,0,10.64,0,16,0,2.47,1.05,3.1,4.33,3,3-.06,3.81-.74,3.83-3.28,0-2-.07-4,.05-6,.2-3.39.87-3.83,4.26-3.51a3,3,0,0,1,2.34,1.8c1.18,1.93,2.69,3.74,3.44,5.82,1.6,4.46,4.76,5.47,9,5.08C218,476.44,218.44,475.84,217.67,474Zm-9.57-20.58c-.75,1.72-2.29,2.28-3.94,2.6a9.6,9.6,0,0,1-2.08.05c-5.2,0-5.2,0-5.18-5.46.37-1.39-.9-4,1.58-4.41,3.1-.56,6.52-1,9.09,1.65C209.16,449.49,209,451.5,208.1,453.46Z"/><path class="cls-4" d="M837.11,472c-4.21-10.25-8.51-20.46-12.72-30.71-.87-2.12-2.32-3-4.54-3.24-3.82-.49-5.17,2.29-6.27,4.81-4.44,10.17-8.65,20.45-12.89,30.72-.48,1.17-.53,2.43,1.11,2.95,3.78,1.2,6.85-.07,8.27-3.75a4.86,4.86,0,0,1,5.14-3.47c2.71.05,5.41,0,8.12,0s4.49,1,5.14,3.76,2.41,4.12,4.85,3.7C838,476.77,838.71,475.87,837.11,472Zm-17.82-10.13c-.52,0-1,0-1.57,0-2.49-.1-2.89-.66-2-3.06.7-2,1.47-3.87,2.26-5.78s1.75-1.59,2.49-.07a47.32,47.32,0,0,1,2.66,6.43C823.72,461.32,822.74,461.9,819.29,461.86Z"/><path class="cls-4" d="M353.87,471.7c-4.11-10-8.37-20-12.4-30-1-2.55-2.4-3.94-5.26-3.51-2.89-.61-4.54.84-5.51,3.46q-1.63,4.38-3.42,8.69c-3.12,7.53-6.29,15-9.4,22.55-.56,1.35-1.36,3,.81,3.61,4.14,1.27,6.87,0,8.43-4.13a4.15,4.15,0,0,1,4.28-3c2.79,0,5.58.06,8.37,0,3-.1,5,1,5.74,4.07.57,2.34,2.16,3.3,4.58,3.38C354.79,476.94,355.63,476,353.87,471.7Zm-16.43-9.85c-.43,0-.87,0-1.3,0-4.13,0-4.56-.6-3.11-4.55.48-1.29,1-2.57,1.57-3.8.32-.65.41-1.64,1.44-1.63s1.31.94,1.63,1.75c.67,1.67,1.43,3.31,2,5C340.55,461,340,461.75,337.44,461.85Z"/><path class="cls-4" d="M742.43,503.49a19.62,19.62,0,0,0-16.16-15.95c-9.52-1.33-17.84,2.91-21.7,10.54-5.24,10.34-.86,25.59,14.2,29.36h7.47C737.56,524.89,744.26,515,742.43,503.49Zm-20.2,20.25c-7.41.08-15.54-5.8-15.71-16.49A15.65,15.65,0,0,1,722.2,491.2c9.66.06,16.49,6.94,16.41,16.52A16,16,0,0,1,722.23,523.74Z"/><path class="cls-4" d="M541.65,501C540,494.4,533,487.5,522.74,487.3c-15.4-.29-24.33,14.87-18.54,28.52,2.7,6.36,7.95,9.67,14.29,11.61l8,0,3.16-1.18C539.51,522.58,544.49,512.29,541.65,501Zm-19.1,22.79c-8.78.07-16-7.36-16-16.49s6.68-16,15.61-16.07c10.59.16,16.15,7.18,16.51,16.16S531.55,523.69,522.55,523.76Z"/><path class="cls-4" d="M632.29,517.09c-3.61-5.74-3.94-4.39,1.19-9.49a11.12,11.12,0,0,0-3.62-18,29.15,29.15,0,0,0-11-1.79c-1.49,0-3-.05-4.45,0-2.89.13-3.56.82-3.56,3.62q0,14.4,0,28.8a22.21,22.21,0,0,0,.36,3.63c.2,1.19.29,2.57,2.09,2.4s1.5-1.59,1.57-2.6c.19-2.78.19-5.58.22-8.37,0-1.59.6-2.65,2.26-3,4.74-1.07,7-.17,9.77,3.86.73,1.08,1.46,2.17,2.15,3.28,1.15,1.84,2.29,3.7,3.39,5.57a2.36,2.36,0,0,0,3.12,1.15c1.46-.64.5-2,.14-2.72A63.21,63.21,0,0,0,632.29,517.09ZM625.21,508a37.42,37.42,0,0,1-6.76.4c-2.21,0-3.38-1.08-3.44-3.34,0-1.66-.18-3.3-.24-4.36.1-1.38.17-2.16.21-2.94.33-5.88.33-5.9,6.12-5.87a26.12,26.12,0,0,1,4.42.39c4.39.78,6.63,3.57,6.59,8C632.08,504.46,629.49,507.26,625.21,508Z"/><path class="cls-4" d="M330.39,522.94c-1.58-3.47-3.24-6.91-4.79-10.39-3.28-7.33-6.5-14.7-9.8-22-.51-1.15-1-2.5-2.67-2.47s-2.14,1.32-2.78,2.44c-.42.75-.77,1.55-1.12,2.34q-5.1,11.28-10.18,22.57c-1.16,2.6-2.25,5.24-3.33,7.88-.48,1.19-.68,2.36.83,2.94a4.94,4.94,0,0,0,3.49-2.67q1.24-2.73,2.46-5.46a3.13,3.13,0,0,1,2.64-2.23c5.21-.31,10.43-.88,15.65,0a3.78,3.78,0,0,1,3,2.23q1.48,3.18,3,6.32c.61,1.25,1.34,2.27,3,1.5S330.87,524,330.39,522.94Zm-12.26-11c-1.65.12-3.31,0-5,0l-5.47-.15c-1.38-.11-1.81-1-1.43-2.19A48.13,48.13,0,0,1,311.78,497c1.13-1.7,1.94-1.36,2.77.24,2,3.85,3.68,7.81,5.28,11.83C320.55,510.92,319.87,511.78,318.13,511.9Z"/><path class="cls-4" d="M146.24,523.91a6.32,6.32,0,0,0-.42-1.21c-4.88-9.79-8.87-20-13.37-29.92-.81-1.79-1.14-4.52-3.66-4.63-2.74-.11-3.11,2.76-3.95,4.59-4.65,10.1-9.12,20.27-13.66,30.42-.41.94-.59,2,.19,2.68s1.78-.05,2.57-.48a4.73,4.73,0,0,0,1.92-2.41c.68-1.61,1.39-3.19,2-4.81.49-1.2,1.21-2.22,2.58-2.27,4.87-.17,9.7-1,14.63-.23a5.58,5.58,0,0,1,4.89,3.92c.83,2.08,1.5,4.28,3.06,6a1.94,1.94,0,0,0,2.34.6C146.14,525.87,146.33,525.19,146.24,523.91Zm-12.45-12c-1.64.17-3.3.18-5.22.27-1.48-.08-3.22-.13-4.95-.29s-2.31-.87-1.67-2.64a127.53,127.53,0,0,1,5.25-12.13c.84-1.74,1.86-1.73,2.76,0a94.05,94.05,0,0,1,5.4,12.35C136,511.06,135.26,511.75,133.79,511.9Z"/><path class="cls-5" d="M1404.48,134.53a161.79,161.79,0,0,0,16-7c8-4.13,15.7-8.55,21.07-16.07.66-.93,1.56-1.51,2.68-.71q2.84,2,5.58,4.16c1.66,1.29,0,2-.65,2.74-5.43,6.32-12.29,10.51-20,13.45C1421.26,134.13,1412.9,134.17,1404.48,134.53Z"/><path class="cls-6" d="M1415,108.19c1.26,1.11.1,2-.44,2.65-3.92,4.54-6.84,9.92-11.69,13.68-.72.56-1.89,1.59-1.32,2.54.85,1.41,1.73-.27,2.63-.44,5.33-1.06,10.08-3.62,15-5.81.67-.29,1.36-1.13,2.11-.09-7.87,4.84-16.65,7.28-26.31,10A186.22,186.22,0,0,0,1415,108.19Z"/><path class="cls-7" d="M1443,36.94c-12.25-21.12-30.07-33.3-55-33.87-3.5-.08-7.16.41-10.67.44-1.52,0-5.57,1-6.93,1.15s-8.91,3.25-14.43,6.13c-23.72,12.35-37.74,41.82-31.87,67.89s21.84,42.5,47.42,49.46c5.55,1.51,11.93,4.37,17.32-1.19-1.35-.3-2.89.78-4.08-.58a61.08,61.08,0,0,1-31.42-10c-4.62-3-5-8.21-5.68-12.93-.32-2.06,1.88-1,2.81-.57a121.73,121.73,0,0,0,15.35,5.35,79.45,79.45,0,0,0,16,2.76,18.47,18.47,0,0,1,3,.68c1.21-1.23.62-2.74.68-4.16-5.15.1-10.14-1-15.14-2a3.06,3.06,0,0,1-2.82-3c-1.09-9.24-1.6-18.49-.3-27.76.26-1.93,1.5-1.88,2.79-1.56,8.55,2.07,17.26,2.13,26,2h0c1.39-1.25,3.57-1.86,3.49-4.31-9.56,1.55-19,.76-28.4-1.26-2.38-.51-3.19-1.18-2.61-3.91a121.34,121.34,0,0,1,9.74-28.48c1-2.07,2.51-2.84,4.44-2.45,3.91.78,8.68-3,11.76,2a82.27,82.27,0,0,1,10.81,27.91h0c2.23.43,3.33-.56,3.49-2.75a115.26,115.26,0,0,0-10.87-26.85c-.84-1.47-.73-2.29,1-2.78a22.44,22.44,0,0,0,3.53-1.42c6.78-3.21,6.76-3.21,12,1.94a77.81,77.81,0,0,1,14.06,19.33h0c1.37,1.39,2.9,1.84,4.68.76a98,98,0,0,0-19.57-26c-1.26-1.22-1.06-2.1.21-3.11a31.81,31.81,0,0,0,2.82-2.63c4.46-4.52,4.4-4.46,9.33-.06,9.07,8.07,15.65,17.67,18.61,29.56h0l3.35,1.37c.06-.87.13-1.74.19-2.62A43,43,0,0,0,1443,36.94Zm-107.48,59c6.13,1.39,7.19,5.71,7.73,11.16C1340,103.45,1337.13,100.34,1335.5,95.91Zm7.77-32a84.14,84.14,0,0,0-2,14.47c-.12,4.73,0,9.46,0,14.52-7.5-3.69-13.4-7.87-14.19-17a78.58,78.58,0,0,1,.84-21.83c.47-2.46,1.62-2.46,3.33-1.12q5.36,4.2,10.72,8.37C1342.8,61.94,1343.52,62.69,1343.27,63.9Zm-12.68-17.62a4.52,4.52,0,0,1,.4-2.36,66,66,0,0,1,14.27-20.86c2.19-2.14,3.92-2.28,6.16,0a25.34,25.34,0,0,0,7.33,5.29c1.59.72,1.84,1.63.78,2.92a82.09,82.09,0,0,0-14,25.43c-.27.78-.51,1.26-1.38,1.18C1342.19,57.84,1330.86,48.31,1330.59,46.28Zm29.2,56.34c-3.89-1.51-7.68-3.29-11.54-4.9-2.54-1.06-3.34-3.34-3.45-5.65-.36-8.15-.44-16.29,1.48-24.33.56-2.31,1.36-2.87,3.55-1.86,3.77,1.75,7.59,3.4,11.46,4.9a2.77,2.77,0,0,1,2,3.13c-.11,3.61,0,7.23,0,10.84,0,5-.65,10,.27,15C1364.34,104,1364,104.27,1359.79,102.62Zm14.44-66.11a128.21,128.21,0,0,0-9.56,28.91c-.41,2-1.12,2.48-3.09,1.66a106.11,106.11,0,0,1-11-5c-1.89-1.06-2.38-2.18-1.64-4.21A88.72,88.72,0,0,1,1362.85,33a2.85,2.85,0,0,1,3.1-1.23c2.29.7,5.06,1.49,7.79,2.41C1375,34.61,1374.65,35.62,1374.23,36.51Zm40.13-18.45c-8.76,8.71-19.29,13.21-37,13.09-5.37,0-14.82-3.3-22.86-10.4-2.88-2.55-2.91-2.9.2-4.94,7.23-4.75,15.25-7.26,23.73-8.55,12.24-1.85,23.81.37,34.89,5.62C1417.25,14.74,1417.36,15.08,1414.36,18.06Z"/><path class="cls-6" d="M1448,49.44c4.07,15.84,4.62,31.57-2.63,46.69-5.2,10.84-13.61,18.83-24.15,24.59-5.09,1.23-9.24,4.77-14.42,5.88a9.28,9.28,0,0,0-3,.84c-1,.59-2,1.12-2.77,0-1-1.32.21-2.29,1-3,4.36-3.91,7.69-8.69,11.32-13.23a5.28,5.28,0,0,0,1.61-3c4.27-6.61,8.82-13.08,11-20.92-1.83,0-2,1.39-2.54,2.26a169,169,0,0,1-30.93,35c-1.11,1-2.18,2.06-3.72,2.39s-3.57,1.55-4.55-1.09A55.9,55.9,0,0,1,1384,112c.2-1.06.2-3.37.49-4.42.6-11.63,3.85-22.38,10.59-32a22.27,22.27,0,0,1,4.17-5.06c1.94-2.06,3.88-4.11,5.81-6.18,1.09-1.93,2.24-1.93,3.51-2.84,5.31-3,10.56-6.22,16.51-7.92"/><path class="cls-6" d="M1433.45,52a52.15,52.15,0,0,1,10.74-1.85,4.76,4.76,0,0,1,2.27.58"/></g></g></svg>